<?xml version="1.0" encoding="UTF-8"?>
<!DOCTYPE svg PUBLIC "-//W3C//DTD SVG 1.1//EN" "http://www.w3.org/Graphics/SVG/1.1/DTD/svg11.dtd">
<!-- Creator: CorelDRAW 2020 (64-Bit) -->
<svg xmlns="http://www.w3.org/2000/svg" xml:space="preserve" width="320.964mm" height="43.7308mm" version="1.1" style="shape-rendering:geometricPrecision; text-rendering:geometricPrecision; image-rendering:optimizeQuality; fill-rule:evenodd; clip-rule:evenodd"
viewBox="0 0 57912.23 7890.43"
 xmlns:xlink="http://www.w3.org/1999/xlink"
 xmlns:xodm="http://www.corel.com/coreldraw/odm/2003">
 <defs>
  <style type="text/css">
   <![CDATA[
    .fil6 {fill:#198AC6}
    .fil3 {fill:#1D8FD1}
    .fil4 {fill:#6DB52F}
    .fil5 {fill:#9ABF30}
    .fil1 {fill:#CF5306}
    .fil7 {fill:#115292;fill-rule:nonzero}
    .fil8 {fill:white;fill-rule:nonzero}
    .fil2 {fill:url(#id6)}
    .fil0 {fill:url(#id7)}
   ]]>
  </style>
    <mask id="id0">
  <linearGradient id="id1" gradientUnits="userSpaceOnUse" x1="1998.54" y1="3452.36" x2="3411.95" y2="947.78">
   <stop offset="0" style="stop-opacity:1; stop-color:white"/>
   <stop offset="1" style="stop-opacity:0; stop-color:white"/>
  </linearGradient>
     <rect style="fill:url(#id1)" x="1225.67" y="499.11" width="2124.75" height="5054.82"/>
    </mask>
    <mask id="id2">
  <linearGradient id="id3" gradientUnits="userSpaceOnUse" x1="2181.4" y1="5149.61" x2="3397.9" y2="3406">
   <stop offset="0" style="stop-opacity:1; stop-color:white"/>
   <stop offset="1" style="stop-opacity:0; stop-color:white"/>
  </linearGradient>
     <rect style="fill:url(#id3)" x="1923.51" y="2630.66" width="1962.58" height="3248.84"/>
    </mask>
    <mask id="id4">
  <linearGradient id="id5" gradientUnits="userSpaceOnUse" x1="2751.74" y1="5189.96" x2="3889.03" y2="3941.15">
   <stop offset="0" style="stop-opacity:1; stop-color:white"/>
   <stop offset="1" style="stop-opacity:0; stop-color:white"/>
  </linearGradient>
     <rect style="fill:url(#id5)" x="2171.52" y="3396.67" width="1843.08" height="2316.78"/>
    </mask>
  <linearGradient id="id6" gradientUnits="userSpaceOnUse" x1="1920.35" y1="4554.46" x2="3851.05" y2="1707.07">
   <stop offset="0" style="stop-opacity:1; stop-color:#115292"/>
   <stop offset="1" style="stop-opacity:1; stop-color:#1A9BD8"/>
  </linearGradient>
  <linearGradient id="id7" gradientUnits="userSpaceOnUse" x1="1225.85" y1="3207.16" x2="3281.55" y2="137.53">
   <stop offset="0" style="stop-opacity:1; stop-color:#BC3E15"/>
   <stop offset="0.419608" style="stop-opacity:1; stop-color:#D9700F"/>
   <stop offset="1" style="stop-opacity:1; stop-color:#F6A209"/>
  </linearGradient>
 </defs>
 <g id="Layer_x0020_1">
  <metadata id="CorelCorpID_0Corel-Layer"/>
  <g id="_2005714242032">
   <path class="fil0" d="M1555.49 5538.52c0,0 -1284.19,-1132.68 -444.48,-2646 631.98,-1138.96 1597.36,-739.61 1875.16,-2892.52 0,0 845.29,1275.55 -105.7,2421.81 -950.98,1146.27 -1776.39,1738.19 -1324.98,3116.71z"/>
   <path class="fil1" style="mask:url(#id0)" d="M3221.11 517.15c153.28,477.26 232.07,1214.32 -340.64,1904.66 -950.35,1145.53 -1775.29,1737.45 -1325.83,3114.07 -161.43,-203.8 -665.41,-988.69 107.23,-2076.36 806.93,-1135.91 1680.27,-1262.32 1559.24,-2942.37z"/>
   <path class="fil2" d="M2128.92 5861.46c0,0 -938.16,-590.81 -270.25,-1708.55 582.69,-975.07 1718.97,-1622.55 1704.49,-2897.57 0,0 742.44,1080.86 -8.84,2152.57 -751.28,1071.71 -1560.7,1263.64 -1425.39,2453.55z"/>
   <path class="fil3" style="mask:url(#id2)" d="M2128.93 5861.46c0,0 -4.53,-2.87 -12.47,-8.35 -128.25,-211.03 -331.06,-696.56 24.57,-1289.29 362.16,-603.6 1283.48,-1108.12 1727,-1915.1 -39.05,243.53 -133.16,501.6 -313.73,759.2 -751.28,1071.71 -1560.7,1263.64 -1425.38,2453.55z"/>
   <path class="fil4" d="M2445.52 5045.34c795.36,-930.38 1889.12,-1056.55 1645.45,-2859.39 0,0 1055.91,1024.49 567.58,2437.33 -83.12,240.52 -399.66,831.43 -1102.15,1134.88 -806.86,348.5 -1859.53,162.91 -1110.88,-712.81z"/>
   <path class="fil5" style="mask:url(#id4)" d="M2445.52 5045.34c558.85,-653.72 1264.99,-910.42 1551.03,-1630.64 -64.68,477.17 -241.92,1153 -716.53,1718.58 -394.53,470.15 -771.87,577.56 -1059.95,560.4 -72.68,-144.29 -22.36,-358.48 225.45,-648.35z"/>
   <path class="fil6" d="M2735.55 7056.84c-13.15,-176.84 -88.95,-755.97 -521.59,-1010.29 -513.92,-302.1 -847.29,-451.42 -847.29,-451.42 0,0 -115.46,-43.41 -162.35,69.45 -46.88,112.84 58.17,174.5 58.17,174.5l595.52 387.19c0,0 70.31,38.2 28.65,100.7 -41.68,62.5 -109.4,13.88 -109.4,13.88l-1075.61 -631.11c0,0 -211.83,-118.06 -281.26,-328.13 -69.45,-210.09 -215.33,-642.41 -215.33,-642.41 0,0 -26.05,-100.7 -123.27,-86.81 -97.23,13.88 -80.73,124.14 -80.73,124.14l105.01 770.01c0,0 31.25,239.58 253.49,392.37 222.24,152.81 826.45,552.14 1007.03,715.34 153.31,138.57 291.6,277.18 329.85,464.65l266.23 0c57.31,0 99.83,2.53 127.89,7.61 28.24,5.27 53.26,15.99 75.46,32.15 22.18,16.35 40.67,37.94 55.45,65.03 14.8,27.05 22.19,57.58 22.19,91.17 0,36.32 -9.08,69.92 -27.23,100.25 -18.15,30.51 -42.85,53.21 -73.94,68.47 43.86,13.98 77.48,37.6 101.17,71.02 23.51,33.42 35.29,72.64 35.29,117.86 0,35.62 -7.56,70.12 -22.84,103.71 -15.3,33.61 -36.14,60.48 -62.7,80.64 -21.49,16.27 -47.09,27.5 -76.83,33.65l285.55 0 0 -771.56 534.4 0 0 131.84 -388.2 0 0 173.27 360.99 0 0 131.86 -360.99 0 0 211.41 402.33 0 0 123.18 122.01 0 0 -771.56 218.97 0 129.39 532.15 127.89 -532.15 219.5 0 0 37.75c26.29,-206.96 172.67,-354.67 336.09,-502.39 180.58,-163.2 784.79,-562.53 1007.03,-715.34 222.24,-152.79 253.49,-392.37 253.49,-392.37l105.01 -770.01c0,0 16.51,-110.26 -80.73,-124.14 -97.22,-13.89 -123.27,86.81 -123.27,86.81 0,0 -145.88,432.31 -215.33,642.41 -69.43,210.08 -281.26,328.13 -281.26,328.13l-1075.61 631.11c0,0 -67.72,48.63 -109.38,-13.88 -41.68,-62.5 28.63,-100.7 28.63,-100.7l595.52 -387.19c0,0 105.05,-61.65 58.17,-174.5 -46.88,-112.86 -162.35,-69.45 -162.35,-69.45 0,0 -333.37,149.33 -847.29,451.42 -432.64,254.32 -508.44,833.45 -521.59,1010.29zm472.23 833.6l140.18 0 -139.67 -605.58 -0.51 605.58zm284.69 0l140.81 0 -0.49 -605.58 -140.32 605.58zm275.95 0l0.04 0 -0.04 -4.78 0 4.78zm-1948.27 -641.89l0 179.8 95.47 0c56.64,0 91.93,-0.9 105.72,-2.72 24.86,-3.09 44.53,-12.34 58.8,-27.79 14.29,-15.44 21.35,-35.6 21.35,-60.68 0,-24.14 -6.21,-43.57 -18.48,-58.66 -12.27,-15.07 -30.58,-24.16 -54.8,-27.25 -14.45,-1.8 -55.95,-2.71 -124.35,-2.71l-83.7 0zm0 309.48l0 209.23 135.13 0c52.43,0 85.89,-1.62 100,-4.71 21.69,-4.37 39.33,-14.72 52.94,-31.25 13.6,-16.71 20.5,-38.68 20.5,-66.47 0,-23.62 -5.21,-43.41 -15.79,-59.76 -10.43,-16.35 -25.71,-28.33 -45.54,-35.78 -19.83,-7.43 -63.02,-11.26 -129.41,-11.26l-117.82 0zm2859.88 -1872.59l-206.61 127.62 271.69 -888.09c0,0 19.11,-62.09 79.88,-62.09 60.77,0 67.28,72.5 56.87,110.26 -10.43,37.76 -201.83,712.29 -201.83,712.29zm52.09 -22.57l295.15 -967.08c0,0 36.77,-103.15 131.41,-98.8 94.62,4.35 56.1,110.97 56.1,110.97 0,0 -178.83,550.39 -213.56,651.09 -34.72,100.7 -157.99,253.49 -269.1,303.83zm-3941.05 22.57l206.61 127.62 -271.69 -888.09c0,0 -19.11,-62.09 -79.88,-62.09 -60.77,0 -67.28,72.5 -56.87,110.26 10.43,37.76 201.83,712.29 201.83,712.29zm-52.07 -22.57l-295.17 -967.08c0,0 -36.77,-103.15 -131.39,-98.8 -94.64,4.35 -56.11,110.97 -56.11,110.97 0,0 178.83,550.39 213.56,651.09 34.72,100.7 157.99,253.49 269.11,303.83z"/>
  </g>
  <polygon class="fil4" points="6776.1,4876.42 57859.81,4876.42 57859.81,7890.41 6776.1,7890.41 "/>
  <path class="fil7" d="M6824.67 403.64l625.32 0c92.99,0 188.37,3.05 286.98,9.15 98.73,6.21 194.88,18.53 288.67,38.63 94.58,19.22 183.45,48.46 268.28,86.3 83.94,38.52 157.34,90.14 220.88,154.88 62.86,64.72 112.61,144.81 150.14,240.39 37.35,95.56 56.17,210.44 56.17,344.53l0 187.18c0,102.58 -15.46,196.56 -46.5,282.07 -30.94,86.32 -72.52,161.88 -123.16,227.29 -51.22,65.51 -109.16,119.52 -174.39,162.66 -65.21,42.37 -132.11,71.63 -200.59,86.32l0 18.51c202.17,34.68 354.67,124.82 457.34,272.02 102.86,146.4 154.18,334.39 154.18,563.25l0 196.54c0,139.51 -16.35,261.28 -48.95,364.54 -32.51,103.24 -78.24,191.13 -137.74,264.33 -58.82,72.41 -128.86,132.51 -209.66,179.49 -81.46,46.21 -170.24,82.48 -268.18,109.47 -97.04,26.2 -200.59,43.94 -309.75,53.9 -110.15,10.05 -223.54,14.67 -339.21,14.67l-649.84 0 0 -3856.14zm725.61 1650.63c83.16,0 158.92,-10.05 227.49,-28.47 68.56,-18.53 126.41,-47.78 175.27,-87.89 48.86,-40.09 85.61,-91.71 112.61,-155.66 26.02,-63.95 39.12,-141.08 39.12,-232.02l0 -157.93c0,-90.14 -9.85,-169.55 -28.58,-238.91 -18.8,-69.36 -50.54,-127.89 -94.56,-176.46 -43.95,-47.78 -101.1,-84.73 -172.02,-109.45 -70.95,-24.63 -157.34,-36.95 -259.32,-36.95l-119.01 0 0 1223.74 119.01 0zm57.94 1799.41c82.37,0 158.13,-10.84 225.81,-30.84 67.68,-20.01 125.62,-51.64 173.7,-94.78 48.95,-43.16 86.39,-97.14 112.5,-163.34 26.11,-66.31 39.12,-144.94 39.12,-235.08l0 -300.49c0,-90.25 -8.97,-170.35 -28.58,-240.5 -18.71,-70.13 -50.54,-128.67 -93.68,-175.65 -44.15,-47.8 -101.1,-84.05 -171.23,-108.67 -70.06,-24.63 -155.77,-37.04 -257.64,-37.04l-176.95 0 0 1386.4 176.95 0zm1924.52 -3450.04l618.81 0 0 3856.14 -618.81 0 0 -3856.14zm2425.82 3890.04c-65.23,0 -136.17,-4.64 -212.82,-14.6 -75.76,-10.05 -151.73,-30.84 -226.6,-62.45 -75.06,-31.63 -146.78,-76.27 -216.16,-134.1 -69.25,-57.83 -130.43,-134.08 -184.22,-228.86 -53.01,-94.78 -95.38,-211.94 -127.2,-351.43 -31.81,-139.51 -48.18,-305.13 -48.18,-497.83l0 -1365.53c0,-194.18 16.37,-360.68 48.97,-497.83 32.71,-137.92 75.85,-253.49 130.43,-348.27 53.8,-94.1 115.87,-168.78 185.12,-224.33 69.38,-55.46 141.87,-97.83 216.86,-127.89 75.85,-29.27 151.62,-48.57 225.9,-57.03 74.99,-9.27 144.24,-13.89 207.89,-13.89 60.28,0 128.07,3.84 202.16,12.41 74.19,8.46 147.59,26.11 221.88,54.67 74.18,27.7 145.92,68.58 216.05,124.05 70.06,54.78 132.02,129.46 186.71,223.54 53.79,93.99 97.04,210.35 129.66,349.86 33.4,139.4 49.75,307.49 49.75,504.72l0 1365.53c0,191.13 -17.25,356.05 -50.54,493.19 -33.51,137.92 -77.53,254.28 -131.43,349.86 -53.8,95.56 -116.56,172.6 -187.49,230.43 -70.95,57.85 -143.46,103.26 -217.64,135.67 -74.28,32.32 -147.59,53.9 -220.99,63.95 -73.4,10.74 -139.4,16.17 -198.11,16.17zm0 -440c60.28,0 113.38,-10.05 159.01,-29.27 45.61,-20.1 83.14,-53.99 112.5,-101.78 29.36,-48.57 51.33,-111.72 66.9,-191.13 14.58,-78.52 22.86,-178.72 22.86,-299.01l0 -1753.89c0,-124.03 -8.28,-226.59 -22.86,-309.75 -15.57,-82.46 -37.55,-149.56 -66.9,-199.61 -29.36,-50.14 -66.89,-86.3 -112.5,-107.09 -45.63,-21.58 -98.73,-31.63 -159.01,-31.63 -61.98,0 -115.77,10.05 -162.28,31.63 -46.5,20.79 -84.82,56.94 -114.97,107.09 -30.15,50.05 -52.9,117.15 -67.68,199.61 -15.46,83.16 -22.75,185.72 -22.75,309.75l0 1753.89c0,120.29 7.29,220.49 22.75,299.01 14.78,79.41 37.53,142.56 67.68,191.13 30.15,47.8 68.47,81.68 114.97,101.78 46.52,19.22 100.3,29.27 162.28,29.27zm1798.91 -3450.04l807.09 0 391.43 1492.6c41.68,164.91 74.28,322.96 98.62,472.41 23.64,150.25 46.5,291.33 69.36,423.83l18.71 0c22.07,-132.51 45.72,-273.59 69.36,-423.83 23.65,-149.45 56.26,-307.49 97.83,-472.41l403.55 -1492.6 791.03 0 0 3856.14 -578.12 0 0 -1275.36c0,-195.77 1.48,-383.74 5.7,-564.91 4.04,-180.31 8.97,-346.01 15.37,-497.74 6.6,-151.13 13.89,-284.43 22.07,-400.79 7.4,-115.57 14.69,-207.28 21.18,-275.07l-45.61 0 -616.45 2516.84 -391.34 0 -621.26 -2516.84 -44.93 0c5.7,67.79 13.1,159.5 21.27,275.07 8.08,116.36 15.37,249.66 21.18,400.79 6.5,151.73 12.22,317.43 15.46,497.74 4.15,181.17 6.51,369.15 6.51,564.91l0 1275.36 -578.03 0 0 -3856.14zm4101.47 0l711.71 0 754.19 3856.14 -625.32 0 -112.61 -691.23 -745.22 0 -107.57 691.23 -627.79 0 752.62 -3856.14zm656.25 2724.92l-286.11 -1921.18 -26.88 0 -288.67 1921.18 601.67 0zm1253.41 349.84c0,-82.46 5.7,-158.82 15.55,-228.86 10.65,-70.15 26.02,-145.72 47.29,-226.6l479.41 0 0 187.29c0,103.26 7.29,195.66 20.3,275.07 13.89,80.2 35.96,147.2 66.9,201.89 31.03,55.55 72.61,96.35 124.82,124.14 51.33,28.47 114.88,42.37 189.94,42.37 117.35,0 207.1,-30.84 269.85,-91.73 61.87,-60.88 93.01,-150.25 93.01,-267.38 0,-60.1 -4.13,-115.57 -13.1,-166.5 -8.97,-50.05 -23.65,-100.1 -45.63,-149.47 -21.27,-50.03 -50.54,-102.45 -87.27,-157.23 -36.66,-54.69 -83.16,-116.36 -141.1,-184.15l-644.92 -724.43c-114.2,-138.72 -202.95,-278.12 -265.02,-419.2 -61.87,-140.2 -92.81,-290.55 -92.81,-450.05 0,-127.89 21.09,-245.03 63.55,-352.11 41.57,-107.1 102.67,-198.82 182.65,-276.66 79.03,-77.84 177.74,-137.92 294.19,-180.4 117.53,-43.14 250.44,-64.72 397.92,-64.72 180.2,0 330.24,23.94 450.16,72.52 120.69,47.78 216.84,110.93 288.56,189.54 71.04,78.63 121.58,165.73 151.73,262.76 29.36,97.14 43.94,194.97 43.94,292.8 0,82.46 -7.29,158.82 -20.3,228.86 -13.89,70.15 -29.36,147.2 -46.5,231.24l-477.84 0 0 -182.67c0,-204.92 -30.93,-361.37 -92.9,-470.84 -62.84,-108.66 -163.94,-163.34 -304.14,-163.34 -115.86,0 -203.04,30.06 -260.09,90.94 -57.14,61.67 -85.52,142.56 -85.52,245.03 0,54.78 4.04,103.24 13.01,147.2 8.97,43.14 21.18,84.03 38.23,120.19 16.35,37.04 36.65,73.2 60.39,107.88 24.43,34.68 51.33,70.15 81.48,107.88l719.11 822.26c130.54,161.09 230.83,315.18 300.98,463.94 70.04,147.99 105.23,305.22 105.23,470.84 0,136.46 -22.86,259.71 -68.58,369.96 -44.93,110.14 -110.05,203.44 -194.09,279.71 -84.82,77.04 -186.69,136.44 -305.71,177.24 -119.9,41.57 -254.48,62.47 -404.44,62.47 -184.33,0 -337.53,-23.17 -459.79,-70.15 -121.58,-47 -218.63,-108.67 -291.13,-184.92 -72.62,-77.15 -123.16,-164.14 -152.43,-262.08 -30.24,-97.83 -44.91,-198.02 -44.91,-300.49zm3098.61 -3074.76l711.82 0 754.08 3856.14 -625.32 0 -112.5 -691.23 -745.22 0 -107.59 691.23 -627.88 0 752.62 -3856.14zm656.34 2724.92l-286.2 -1921.18 -26.9 0 -288.56 1921.18 601.67 0zm2457.64 -2724.92l1511.62 0 0 460.79 -892.72 0 0 1153.59 689.75 0 0 460.08 -689.75 0 0 1320.89 917.15 0 0 460.79 -1536.05 0 0 -3856.14zm2190.33 0l501.37 0 988.97 2580.77 13.89 0c-4.04,-60.1 -10.63,-127.19 -18.71,-201.18 -8.17,-74 -15.46,-157.93 -21.18,-251.92 -6.6,-94.1 -12.32,-200.39 -17.25,-319.11 -4.73,-119.41 -7.29,-252.71 -7.29,-402.27l0 -1406.29 554.49 0 0 3856.14 -506.31 0 -984.13 -2513 -19.61 0c4.93,67.79 11.44,140.99 19.61,220.4 8.17,78.61 15.46,171.83 21.18,279.02 6.6,106.31 12.22,231.13 17.05,373.69 4.93,141.77 7.49,310.54 7.49,506.31l0 1133.58 -549.56 0 0 -3856.14zm2899.59 0l1511.62 0 0 460.79 -892.7 0 0 1153.59 689.75 0 0 460.08 -689.75 0 0 1320.89 917.14 0 0 460.79 -1536.05 0 0 -3856.14zm2190.33 0l670.94 0c76.65,0 160.69,3.05 252.03,9.15 91.23,6.21 183.45,20.89 274.78,43.95 91.23,23.15 180.2,58.62 264.91,104.81 85.63,47 160.6,110.95 227.49,191.93 66.02,81.68 119.01,183.35 158.24,305.92 39.89,122.55 60.28,271.23 60.28,446.19l0 97.05c0,293.6 -44.91,532.51 -134.57,716.75 -88.88,184.13 -220.11,317.43 -393.79,398.41l654.77 1541.97 -654.77 0 -542.18 -1442.55 -231.62 0 0 1442.55 -606.5 0 0 -3856.14zm699.52 1991.21c108.48,0 199.7,-11.51 274.78,-33.89 74.97,-22.36 135.27,-60.1 181.77,-114.09 45.72,-53.1 79.12,-124.05 100.3,-211.92 20.48,-87.78 30.93,-197.25 30.93,-326.71l0 -304.42c0,-99.42 -9.65,-184.92 -28.38,-257.35 -19.59,-72.41 -51.42,-131.81 -97.04,-178.01 -45.72,-47 -105.23,-81.68 -180.29,-104.04 -74.99,-23.17 -168.78,-33.9 -282.07,-33.9l-93.01 0 0 1564.33 93.01 0zm2835.25 1901.19c-48.18,0 -103.64,-4.64 -168.07,-14.69 -63.55,-10.05 -128.86,-30.84 -196.45,-62.47 -67.68,-31.52 -134.48,-76.25 -199.7,-134.08 -65.32,-57.74 -123.94,-134.78 -175.36,-230.36 -52.13,-95.56 -93.7,-212.71 -125.53,-352.2 -31.83,-139.51 -48.18,-305.13 -48.18,-497.83l0 -1365.53c0,-194.18 17.14,-360.68 50.54,-497.83 33.51,-137.92 78.33,-253.49 133.79,-348.27 55.46,-94.1 119.92,-168.78 192.41,-224.33 72.52,-55.46 147.59,-97.83 225.81,-127.89 77.55,-29.27 154.99,-48.57 231.64,-57.03 76.54,-9.27 147.58,-13.89 212.71,-13.89 165.51,0 305.02,21.58 419.2,64.72 113.31,42.47 206.22,100.99 277.14,175.76 70.15,74.79 121.58,161.78 152.52,261.19 30.93,98.71 46.5,204.23 46.5,315.95 0,82.46 -4.93,158.82 -15.57,228.86 -10.63,70.15 -24.43,147.2 -41.57,231.24l-494.98 0 0 -182.67c0,-423.04 -119.7,-634.18 -360.29,-634.18 -65.32,0 -121.48,10.05 -169.66,31.63 -48.07,20.79 -87.18,56.94 -119.01,107.09 -31.83,50.05 -55.46,117.15 -70.93,199.61 -14.69,83.16 -22.77,185.72 -22.77,309.75l0 1747c0,120.2 8.08,220.4 22.77,300.6 15.46,79.3 38.32,143.24 69.36,191.82 30.93,47.78 70.04,82.46 117.33,102.56 46.5,20.79 102.76,30.75 167.98,30.75 68.47,0 127.19,-16.96 176.95,-50.85 49.75,-33.89 89.66,-80.09 121.47,-138.72 31.83,-59.31 55.46,-127.89 70.95,-208.07 14.67,-79.32 22.84,-166.41 22.84,-259.71l0 -503.15 -318.01 0 0 -383.83 919.7 0 0 1952.8 -410.84 0 -66.99 -366.01c-78.13,143.24 -167.87,245.82 -269.06,308.18 -101.08,62.47 -220.79,94.1 -358.63,94.1zm1883.74 -3892.4l618.81 0 0 3856.14 -618.81 0 0 -3856.14zm2569.26 0l807.18 0 391.43 1492.6c41.57,164.91 74.19,322.96 98.53,472.41 23.73,150.25 46.5,291.33 69.36,423.83l18.71 0c22.07,-132.51 45.72,-273.59 69.36,-423.83 23.65,-149.45 56.26,-307.49 97.94,-472.41l403.45 -1492.6 791.03 0 0 3856.14 -578.12 0 0 -1275.36c0,-195.77 1.57,-383.74 5.7,-564.91 4.04,-180.31 8.97,-346.01 15.48,-497.74 6.5,-151.13 13.78,-284.43 21.96,-400.79 7.4,-115.57 14.69,-207.28 21.29,-275.07l-45.72 0 -616.45 2516.84 -391.34 0 -621.28 -2516.84 -44.93 0c5.72,67.79 13.12,159.5 21.29,275.07 8.17,116.36 15.46,249.66 21.18,400.79 6.5,151.73 12.31,317.43 15.46,497.74 4.13,181.17 6.51,369.15 6.51,564.91l0 1275.36 -578.03 0 0 -3856.14zm4101.47 0l711.71 0 754.19 3856.14 -625.32 0 -112.61 -691.23 -745.22 0 -107.59 691.23 -627.78 0 752.62 -3856.14zm656.25 2724.92l-286.11 -1921.18 -26.9 0 -288.65 1921.18 601.67 0zm1411.63 -2724.92l501.37 0 989.07 2580.77 13.89 0c-4.04,-60.1 -10.65,-127.19 -18.82,-201.18 -8.08,-74 -15.37,-157.93 -21.09,-251.92 -6.6,-94.1 -12.31,-200.39 -17.23,-319.11 -4.84,-119.41 -7.29,-252.71 -7.29,-402.27l0 -1406.29 554.47 0 0 3856.14 -506.29 0 -984.15 -2513 -19.59 0c4.93,67.79 11.33,140.99 19.59,220.4 8.08,78.61 15.37,171.83 21.18,279.02 6.51,106.31 12.13,231.13 17.05,373.69 4.93,141.77 7.38,310.54 7.38,506.31l0 1133.58 -549.54 0 0 -3856.14zm2899.68 0l642.37 0c97.04,0 198.22,3.05 301.66,7.67 104.54,5.43 206.31,21.58 305.92,48.57 100.19,27.7 193.98,69.36 282.07,125.53 88.86,56.26 166.3,135.67 233.19,237.43 66.8,100.9 119.81,228.88 158.92,383.74 38.32,154.09 57.92,342.17 57.92,564.82l0 1120.5c0,222.76 -19.59,411.53 -57.92,566.39 -39.12,154.88 -92.13,282.86 -158.92,383.85 -66.89,100.88 -144.33,179.51 -233.19,235.75 -88.09,56.26 -181.88,98.62 -282.07,125.62 -99.62,26.99 -201.38,43.16 -305.92,48.57 -103.44,5.43 -204.63,7.69 -301.66,7.69l-642.37 0 0 -3856.14zm776.16 3447.67c111.72,0 203.06,-13.8 275.56,-40.8 72.62,-26.99 129.77,-74.77 172.02,-143.35 42.47,-68.56 71.83,-161.87 87.29,-279.71 16.35,-118.71 23.65,-267.38 23.65,-448.57l0 -1196.73c0,-180.31 -7.31,-329.87 -23.65,-447.69 -15.46,-117.93 -44.82,-211.92 -87.29,-279.8 -42.26,-68.58 -99.4,-116.36 -172.02,-143.35 -72.5,-27.7 -163.83,-40.8 -275.56,-40.8l-157.34 0 0 3020.79 157.34 0zm1965.21 -3447.67l618.92 0 0 3856.14 -618.92 0 0 -3856.14zm1523.26 0l671.03 0c76.56,0 160.58,3.05 251.92,9.15 91.33,6.21 183.45,20.89 274.78,43.95 91.33,23.15 180.2,58.62 265.02,104.81 85.52,47 160.6,110.95 227.4,191.93 66.11,81.68 119.1,183.35 158.22,305.92 40,122.55 60.39,271.23 60.39,446.19l0 97.05c0,293.6 -44.93,532.51 -134.58,716.75 -88.86,184.13 -220.2,317.43 -393.79,398.41l654.68 1541.97 -654.68 0 -542.16 -1442.55 -231.62 0 0 1442.55 -606.59 0 0 -3856.14zm699.59 1991.21c108.39,0 199.72,-11.51 274.78,-33.89 74.88,-22.36 135.27,-60.1 181.79,-114.09 45.61,-53.1 79.1,-124.05 100.28,-211.92 20.41,-87.78 30.94,-197.25 30.94,-326.71l0 -304.42c0,-99.42 -9.65,-184.92 -28.47,-257.35 -19.61,-72.41 -51.33,-131.81 -97.05,-178.01 -45.61,-47 -105.12,-81.68 -180.2,-104.04 -74.97,-23.17 -168.76,-33.9 -282.07,-33.9l-92.99 0 0 1564.33 92.99 0zm2010.84 -1991.21l618.92 0 0 3856.14 -618.92 0 0 -3856.14z"/>
  <path class="fil8" d="M7949.99 7015.05l0 -1651.13 661.08 0c121.38,0 222.85,18.13 304.14,54.09 80.98,35.96 141.87,85.9 182.76,149.45 40.89,63.95 61.27,136.95 61.27,219.8 0,64.34 -12.81,121.09 -38.63,169.57 -25.71,48.75 -61.27,88.47 -105.9,119.5 -45.04,30.64 -96.06,52.61 -153.6,65.51l0 16.26c62.86,2.65 121.86,20.39 177.04,53.3 54.89,32.51 99.51,78.33 133.99,137.34 34.39,59.02 51.82,129.06 51.82,210.04 0,87.78 -21.56,165.71 -65.12,234.18 -43.05,68.47 -107,122.57 -191.42,162.28 -84.33,39.7 -188.37,59.8 -311.73,59.8l-705.71 0zm349.26 -285.32l284.52 0c97.23,0 168.38,-18.91 212.62,-55.97 44.62,-37.44 66.99,-87.38 66.99,-149.85 0,-45.41 -10.95,-85.9 -32.91,-120.69 -21.98,-35.17 -53.41,-62.36 -93.79,-82.46 -40.51,-19.7 -88.97,-29.55 -144.94,-29.55l-292.5 0 0 438.52zm0 -674.98l258.81 0c47.69,0 90.45,-8.28 127.87,-25.31 37.06,-17.05 66.62,-40.89 88.57,-71.92 21.49,-31.34 32.51,-68.87 32.51,-112.32 0,-59.42 -21.18,-107.48 -63.15,-144.15 -42.46,-36.74 -102.16,-54.87 -179.4,-54.87l-265.22 0 0 408.57zm1452.8 960.29l0 -1238.32 343.54 0 0 1238.32 -343.54 0zm174.08 -1398.02c-51.13,0 -94.98,-17.05 -131.72,-51.04 -36.27,-34.08 -54.49,-74.97 -54.49,-123.05 0,-47.29 18.22,-87.78 54.49,-122.15 36.74,-34.1 80.18,-51.04 130.94,-51.04 51.42,0 95.36,16.94 131.72,51.04 36.25,34.37 54.49,74.86 54.49,122.15 0,48.09 -18.24,88.97 -54.49,123.05 -36.36,33.99 -79.9,51.04 -130.94,51.04zm1311.23 1422.25c-125.22,0 -233.41,-26.88 -324.63,-80.18 -90.83,-53.41 -161.18,-128.29 -210.74,-224.04 -49.55,-96.06 -74.18,-207.3 -74.18,-334.48 0,-127.89 24.63,-239.51 74.18,-335.57 49.56,-96.15 119.92,-170.63 210.74,-224.04 91.23,-53.7 199.41,-80.2 324.63,-80.2 125.22,0 233.5,26.51 324.63,80.2 90.83,53.41 161.18,127.89 210.73,224.04 49.17,96.06 74.19,207.68 74.19,335.57 0,127.19 -25.03,238.42 -74.19,334.48 -49.55,95.76 -119.9,170.63 -210.73,224.04 -91.14,53.3 -199.41,80.18 -324.63,80.18zm1.48 -266.01c57.14,0 104.43,-16.26 142.65,-48.77 38.23,-32.6 66.99,-77.22 86.7,-133.59 19.61,-56.35 29.46,-120.69 29.46,-192.61 0,-71.81 -9.85,-136.15 -29.46,-192.5 -19.7,-56.46 -48.46,-101.08 -86.7,-133.99 -38.22,-32.91 -85.51,-49.17 -142.65,-49.17 -57.45,0 -105.52,16.26 -144.54,49.17 -38.9,32.91 -68.46,77.53 -88.07,133.99 -19.31,56.35 -29.16,120.69 -29.16,192.5 0,71.92 9.85,136.26 29.16,192.61 19.61,56.37 49.17,100.99 88.07,133.59 39.03,32.51 87.09,48.77 144.54,48.77zm1140.29 241.78l0 -1238.32 327.29 0 0 218.63 14.78 0c25.71,-72.62 68.47,-129.77 128.97,-171.74 60.19,-41.97 132.11,-62.86 216.05,-62.86 84.73,0 157.05,20.89 216.84,63.26 59.42,41.97 99.51,99.11 119.12,171.34l12.9 0c25.33,-71.14 71.14,-127.89 137.34,-170.65 66.6,-42.76 145.32,-63.95 236.06,-63.95 115.46,0 209.26,36.75 281.58,109.76 72.21,73.4 108.57,177.44 108.57,311.73l0 832.8 -342.86 0 0 -765.01c0,-68.87 -18.13,-120.31 -54.78,-154.79 -36.36,-34.37 -82.17,-51.42 -137.04,-51.42 -62.38,0 -110.84,19.7 -145.63,59.02 -35.17,39.7 -52.61,91.52 -52.61,155.86l0 756.35 -332.9 0 0 -772.21c0,-60.9 -17.45,-109.36 -51.93,-145.32 -34.77,-35.96 -80.18,-53.7 -136.55,-53.7 -38.22,0 -72.61,9.45 -102.85,28.38 -30.35,19.31 -54.49,45.81 -72.32,79.79 -17.74,34.1 -26.51,74.19 -26.51,119.61l0 743.45 -343.54 0zm2731.61 23.46c-78.72,0 -149.05,-14 -211.12,-41.59 -61.69,-27.68 -110.44,-68.85 -146.4,-123.34 -35.58,-54.49 -53.32,-122.66 -53.32,-204.34 0,-68.87 12.41,-126.79 37.84,-173.29 25.33,-46.91 59.7,-84.35 103.26,-112.72 43.54,-28.78 93.1,-50.34 148.66,-64.74 55.66,-14.38 113.89,-24.63 175.18,-30.64 72.32,-7.58 130.15,-14.78 174.08,-21.18 44.24,-6.78 76.07,-17.03 96.06,-30.24 20.1,-13.69 29.95,-33.31 29.95,-59.8l0 -4.93c0,-51.13 -15.97,-90.45 -48.09,-118.44 -31.81,-27.98 -77.13,-41.97 -135.85,-41.97 -61.69,0 -110.84,13.6 -147.5,40.8 -36.34,27.28 -60.59,60.99 -72.7,101.76l-317.45 -25.71c15.97,-75.28 47.69,-140.39 94.98,-195.17 47.29,-55.27 108.58,-97.63 183.55,-127.58 74.88,-29.84 161.87,-44.64 260.69,-44.64 68.87,0 134.67,7.99 197.83,24.25 63.26,15.86 119.61,40.89 168.78,74.88 49.17,33.69 87.78,77.22 116.54,130.24 28.38,52.9 42.37,116.16 42.37,189.85l0 835.07 -325.41 0 0 -171.83 -9.85 0c-19.61,38.63 -46.5,72.71 -79.81,102.18 -33.31,29.16 -73.4,51.91 -119.9,68.47 -46.89,16.35 -101.1,24.63 -162.37,24.63zm98.43 -237.25c50.65,0 95.27,-9.85 133.9,-30.24 38.61,-20.1 69.25,-47.29 91.23,-81.77 21.87,-34.39 32.91,-73.4 32.91,-116.85l0 -131.34c-10.65,6.8 -25.33,13.3 -43.95,18.91 -18.51,5.72 -39.3,10.65 -62.36,15.17 -23.15,4.93 -46.21,8.68 -69.27,12.13 -23.04,3.73 -44.22,6.8 -62.84,9.45 -40.51,6.01 -75.67,15.08 -105.91,28.38 -29.86,12.81 -53.3,29.84 -69.95,51.82 -16.65,21.58 -25.03,48.77 -25.03,80.98 0,46.89 17.05,82.48 51.13,106.71 34.39,24.52 77.53,36.65 130.15,36.65zm2204.53 -671.53l-314.38 19.61c-5.32,-26.79 -16.65,-51.42 -34.39,-73 -17.83,-21.98 -41.28,-39.32 -70.04,-52.61 -28.78,-12.81 -62.77,-19.61 -102.58,-19.61 -53.3,0 -98.32,11.33 -134.67,33.6 -36.65,21.98 -54.87,51.93 -54.87,88.97 0,29.46 11.71,54.49 35.56,74.88 23.55,20.5 63.95,36.75 121.47,49.26l224.35 45.04c120.38,24.92 210.04,64.63 269.06,119.5 59.4,54.87 88.86,126.79 88.86,216.05 0,81 -23.74,152.52 -71.43,213.41 -47.29,61.27 -112.41,108.96 -194.87,143.34 -82.48,34.1 -177.44,51.13 -285.32,51.13 -163.85,0 -294.39,-34.48 -391.23,-102.95 -96.86,-68.47 -154,-161.87 -170.65,-279.99l337.93 -17.74c10.16,49.94 34.79,88.18 74.09,113.89 39.42,26.11 89.76,39.32 151.04,39.32 60.1,0 108.57,-11.73 145.23,-35.17 36.74,-23.46 55.66,-53.7 56.06,-90.85 -0.4,-31.03 -13.6,-56.75 -39.41,-76.74 -25.73,-20.1 -65.42,-35.58 -119.52,-46.61l-214.19 -42.76c-121.07,-23.74 -210.73,-65.82 -269.75,-125.62 -59.02,-59.7 -88.18,-135.76 -88.18,-228.08 0,-79.5 21.58,-147.97 64.72,-205.51 43.56,-57.43 104.43,-101.76 183.16,-133.1 78.72,-31.03 171.03,-46.61 276.94,-46.61 156.25,0 279.62,32.91 369.65,99.13 90.05,65.91 142.27,155.95 157.35,269.84zm1583.72 0l-314.37 19.61c-5.32,-26.79 -16.65,-51.42 -34.39,-73 -17.83,-21.98 -41.28,-39.32 -70.04,-52.61 -28.78,-12.81 -62.77,-19.61 -102.58,-19.61 -53.3,0 -98.32,11.33 -134.67,33.6 -36.65,21.98 -54.87,51.93 -54.87,88.97 0,29.46 11.71,54.49 35.56,74.88 23.55,20.5 63.95,36.75 121.47,49.26l224.35 45.04c120.38,24.92 210.04,64.63 269.06,119.5 59.4,54.87 88.86,126.79 88.86,216.05 0,81 -23.74,152.52 -71.43,213.41 -47.29,61.27 -112.41,108.96 -194.87,143.34 -82.48,34.1 -177.44,51.13 -285.32,51.13 -163.85,0 -294.39,-34.48 -391.23,-102.95 -96.86,-68.47 -154,-161.87 -170.65,-279.99l337.93 -17.74c10.16,49.94 34.79,88.18 74.09,113.89 39.42,26.11 89.76,39.32 151.04,39.32 60.1,0 108.57,-11.73 145.23,-35.17 36.74,-23.46 55.66,-53.7 56.06,-90.85 -0.4,-31.03 -13.6,-56.75 -39.42,-76.74 -25.71,-20.1 -65.41,-35.58 -119.5,-46.61l-214.19 -42.76c-121.07,-23.74 -210.73,-65.82 -269.75,-125.62 -59.02,-59.7 -88.18,-135.76 -88.18,-228.08 0,-79.5 21.58,-147.97 64.72,-205.51 43.56,-57.43 104.43,-101.76 183.16,-133.1 78.72,-31.03 171.03,-46.61 276.94,-46.61 156.25,0 279.62,32.91 369.65,99.13 90.05,65.91 142.27,155.95 157.34,269.84zm1086.22 885.33l0 -1651.13 1093.49 0 0 287.88 -744.23 0 0 393.5 671.62 0 0 287.59 -671.62 0 0 682.16 -349.26 0zm2346.5 -527.38l0 -710.94 343.54 0 0 1238.32 -329.96 0 0 -224.73 -12.81 0c-27.97,72.21 -74.18,130.54 -138.91,174.78 -65.03,43.94 -143.73,66.2 -236.83,66.2 -82.87,0 -155.48,-18.91 -218.34,-56.75 -62.75,-37.44 -111.92,-90.85 -147.09,-160.4 -35.27,-69.25 -53.01,-152.1 -53.79,-248.96l0 -788.47 343.54 0 0 727.19c0.4,73 20.1,130.83 58.62,173.3 39.01,42.35 90.83,63.93 155.97,63.93 41.17,0 79.79,-9.85 115.75,-28.76 36.36,-19.31 65.42,-47.29 87.8,-85.13 22.27,-37.53 32.89,-84.05 32.51,-139.6zm1490.24 551.62c-127.49,0 -236.85,-26.11 -328.76,-77.93 -91.64,-51.82 -161.97,-125.22 -211.54,-220.97 -49.55,-95.38 -74.18,-208.09 -74.18,-338.63 0,-127.48 24.63,-239.51 74.18,-335.66 49.56,-96.06 119.21,-170.94 209.26,-224.73 90.05,-53.7 195.57,-80.6 317.04,-80.6 81.68,0 158.13,12.92 228.88,39.03 70.44,26.11 132.4,65.03 185.41,117.24 52.61,52.22 93.79,117.73 123.74,196.35 29.46,78.72 44.24,170.63 44.24,276.26l0 94.19 -1045.82 0 0 -213 722.38 0c0,-49.17 -10.65,-93.1 -32.23,-131.34 -21.58,-38.13 -51.03,-68.08 -88.86,-89.66 -37.84,-21.87 -82.17,-32.91 -132.11,-32.91 -51.84,0 -97.94,12.13 -138.03,35.96 -40.11,23.85 -71.54,55.97 -93.9,96.06 -22.66,39.8 -33.99,84.44 -34.79,133.21l0 202.46c0,61.27 11.33,114.29 34.5,158.91 22.64,44.64 55.16,79.01 96.84,102.86 41.97,24.23 91.93,36.36 149.45,36.36 37.84,0 73,-5.32 104.74,-15.88 31.43,-11.02 58.71,-26.88 81.37,-48.46 22.36,-21.58 39.7,-48.09 51.42,-79.01l317.83 20.79c-16.26,76.45 -49.15,142.96 -98.71,199.7 -49.94,56.85 -113.89,100.68 -191.82,132.11 -78.33,31.34 -168.38,47.29 -270.54,47.29zm1444.03 -1675.36l0 1651.13 -343.54 0 0 -1651.13 343.54 0zm1114.87 1651.13l0 -1651.13 1093.49 0 0 287.88 -744.23 0 0 393.5 671.62 0 0 287.59 -671.62 0 0 682.16 -349.26 0zm2099.11 24.23c-125.22,0 -233.41,-26.88 -324.63,-80.18 -90.83,-53.41 -161.18,-128.29 -210.73,-224.04 -49.56,-96.06 -74.19,-207.3 -74.19,-334.48 0,-127.89 24.63,-239.51 74.19,-335.57 49.55,-96.15 119.9,-170.63 210.73,-224.04 91.23,-53.7 199.41,-80.2 324.63,-80.2 125.22,0 233.5,26.51 324.63,80.2 90.83,53.41 161.18,127.89 210.73,224.04 49.17,96.06 74.19,207.68 74.19,335.57 0,127.19 -25.03,238.42 -74.19,334.48 -49.55,95.76 -119.9,170.63 -210.73,224.04 -91.14,53.3 -199.41,80.18 -324.63,80.18zm1.48 -266.01c57.14,0 104.43,-16.26 142.65,-48.77 38.23,-32.6 67.01,-77.22 86.72,-133.59 19.59,-56.35 29.45,-120.69 29.45,-192.61 0,-71.81 -9.85,-136.15 -29.45,-192.5 -19.7,-56.46 -48.48,-101.08 -86.72,-133.99 -38.22,-32.91 -85.51,-49.17 -142.65,-49.17 -57.43,0 -105.52,16.26 -144.53,49.17 -38.92,32.91 -68.47,77.53 -88.09,133.99 -19.31,56.35 -29.16,120.69 -29.16,192.5 0,71.92 9.85,136.26 29.16,192.61 19.61,56.37 49.17,100.99 88.09,133.59 39.01,32.51 87.09,48.77 144.53,48.77zm1140.29 241.78l0 -1238.32 333.01 0 0 215.96 12.81 0c22.75,-76.76 60.59,-135.07 113.89,-174.39 52.99,-39.3 114.29,-59.4 183.93,-59.4 16.94,0 35.56,1.17 55.57,3.45 19.7,2.26 37.04,4.93 52.22,8.66l0 304.93c-16.26,-4.93 -38.63,-9.06 -66.99,-12.81 -28.38,-3.84 -54.49,-5.7 -77.93,-5.7 -50.65,0 -95.66,10.93 -135.07,32.5 -39.71,21.98 -70.75,51.93 -93.81,90.85 -22.75,38.61 -34.08,83.25 -34.08,133.59l0 700.69 -343.54 0zm1768.67 0l0 -1651.13 651.63 0c124.43,0 231.13,22.27 319.69,66.6 88.09,44.24 155.88,107 201.98,187.99 46.61,80.58 70.04,175.56 70.04,284.92 0,109.76 -23.84,203.55 -71.13,282.66 -47.29,78.72 -115.37,138.81 -205.11,180.88 -89.28,41.97 -197.45,62.75 -324.63,62.75l-435.87 0 0 -280.39 379.5 0c66.62,0 122.28,-9.45 166.12,-27.59 44.22,-18.13 77.13,-45.81 98.71,-82.06 21.96,-36.75 33,-82.17 33,-136.26 0,-54.87 -11.04,-100.99 -33,-138.82 -21.58,-37.44 -54.78,-66.2 -99.11,-85.9 -44.24,-19.31 -99.91,-29.16 -167.19,-29.16l-235.37 0 0 1365.51 -349.26 0zm891.82 -751.43l410.14 751.43 -385.11 0 -401.48 -751.43 376.45 0zm1443.35 775.66c-127.49,0 -236.85,-26.11 -328.76,-77.93 -91.62,-51.82 -161.97,-125.22 -211.54,-220.97 -49.55,-95.38 -74.18,-208.09 -74.18,-338.63 0,-127.48 24.63,-239.51 74.18,-335.66 49.56,-96.06 119.21,-170.94 209.26,-224.73 90.05,-53.7 195.57,-80.6 317.04,-80.6 81.68,0 158.13,12.92 228.88,39.03 70.44,26.11 132.42,65.03 185.41,117.24 52.61,52.22 93.79,117.73 123.74,196.35 29.46,78.72 44.24,170.63 44.24,276.26l0 94.19 -1045.8 0 0 -213 722.36 0c0,-49.17 -10.65,-93.1 -32.23,-131.34 -21.58,-38.13 -51.03,-68.08 -88.86,-89.66 -37.84,-21.87 -82.17,-32.91 -132.11,-32.91 -51.82,0 -97.94,12.13 -138.03,35.96 -40.11,23.85 -71.52,55.97 -93.9,96.06 -22.66,39.8 -33.99,84.44 -34.77,133.21l0 202.46c0,61.27 11.31,114.29 34.48,158.91 22.66,44.64 55.16,79.01 96.84,102.86 41.97,24.23 91.93,36.36 149.47,36.36 37.82,0 73,-5.32 104.72,-15.88 31.43,-11.02 58.71,-26.88 81.37,-48.46 22.37,-21.58 39.71,-48.09 51.42,-79.01l317.83 20.79c-16.26,76.45 -49.15,142.96 -98.71,199.7 -49.94,56.85 -113.89,100.68 -191.82,132.11 -78.33,31.34 -168.38,47.29 -270.54,47.29zm1444.03 -740.1l0 715.86 -343.54 0 0 -1238.32 327.29 0 0 218.63 14.78 0c27.19,-72.23 73.4,-129.37 137.74,-171.34 64.32,-42.37 142.65,-63.26 234.58,-63.26 85.9,0 160.78,18.53 224.73,56.46 63.95,37.44 113.89,91.14 149.45,160.8 35.17,69.56 52.9,152.41 52.9,248.56l0 788.47 -343.15 0 0 -727.19c0.4,-75.66 -18.91,-135.07 -58.23,-177.83 -39.41,-42.74 -93.1,-63.93 -161.97,-63.93 -46.1,0 -86.99,9.85 -122.17,29.84 -35.17,19.7 -62.47,48.86 -82.17,86.7 -19.59,37.84 -29.84,83.25 -30.24,136.55zm1940.89 740.1c-127.49,0 -236.85,-26.11 -328.76,-77.93 -91.64,-51.82 -161.97,-125.22 -211.54,-220.97 -49.55,-95.38 -74.18,-208.09 -74.18,-338.63 0,-127.48 24.63,-239.51 74.18,-335.66 49.56,-96.06 119.21,-170.94 209.26,-224.73 90.05,-53.7 195.57,-80.6 317.04,-80.6 81.68,0 158.13,12.92 228.88,39.03 70.44,26.11 132.4,65.03 185.41,117.24 52.61,52.22 93.79,117.73 123.74,196.35 29.46,78.72 44.24,170.63 44.24,276.26l0 94.19 -1045.82 0 0 -213 722.38 0c0,-49.17 -10.65,-93.1 -32.23,-131.34 -21.58,-38.13 -51.03,-68.08 -88.86,-89.66 -37.84,-21.87 -82.17,-32.91 -132.11,-32.91 -51.84,0 -97.94,12.13 -138.03,35.96 -40.11,23.85 -71.54,55.97 -93.9,96.06 -22.66,39.8 -33.99,84.44 -34.79,133.21l0 202.46c0,61.27 11.33,114.29 34.5,158.91 22.64,44.64 55.16,79.01 96.84,102.86 41.97,24.23 91.93,36.36 149.45,36.36 37.84,0 73,-5.32 104.74,-15.88 31.43,-11.02 58.71,-26.88 81.37,-48.46 22.36,-21.58 39.7,-48.09 51.42,-79.01l317.83 20.79c-16.26,76.45 -49.15,142.96 -98.71,199.7 -49.94,56.85 -113.89,100.68 -191.82,132.11 -78.33,31.34 -168.38,47.29 -270.54,47.29zm1335.16 -24.23l-337.14 -1238.32 347.39 0 192.21 831.92 10.93 0 200.21 -831.92 340.87 0 203.17 827.1 10.54 0 188.48 -827.1 346.99 0 -336.45 1238.32 -363.55 0 -212.6 -778.62 -15.57 0 -212.6 778.62 -362.87 0zm2346.9 23.46c-78.72,0 -149.07,-14 -211.14,-41.59 -61.67,-27.68 -110.44,-68.85 -146.4,-123.34 -35.56,-54.49 -53.3,-122.66 -53.3,-204.34 0,-68.87 12.41,-126.79 37.84,-173.29 25.31,-46.91 59.7,-84.35 103.26,-112.72 43.54,-28.78 93.1,-50.34 148.66,-64.74 55.66,-14.38 113.89,-24.63 175.18,-30.64 72.32,-7.58 130.15,-14.78 174.08,-21.18 44.24,-6.78 76.05,-17.03 96.06,-30.24 20.1,-13.69 29.95,-33.31 29.95,-59.8l0 -4.93c0,-51.13 -15.97,-90.45 -48.09,-118.44 -31.81,-27.98 -77.13,-41.97 -135.87,-41.97 -61.67,0 -110.82,13.6 -147.49,40.8 -36.36,27.28 -60.59,60.99 -72.7,101.76l-317.45 -25.71c15.97,-75.28 47.69,-140.39 94.98,-195.17 47.29,-55.27 108.57,-97.63 183.55,-127.58 74.88,-29.84 161.87,-44.64 260.69,-44.64 68.87,0 134.67,7.99 197.83,24.25 63.26,15.86 119.61,40.89 168.78,74.88 49.15,33.69 87.78,77.22 116.54,130.24 28.38,52.9 42.37,116.16 42.37,189.85l0 835.07 -325.41 0 0 -171.83 -9.85 0c-19.61,38.63 -46.52,72.71 -79.81,102.18 -33.31,29.16 -73.4,51.91 -119.9,68.47 -46.91,16.35 -101.1,24.63 -162.37,24.63zm98.43 -237.25c50.63,0 95.27,-9.85 133.88,-30.24 38.63,-20.1 69.27,-47.29 91.24,-81.77 21.87,-34.39 32.89,-73.4 32.89,-116.85l0 -131.34c-10.63,6.8 -25.31,13.3 -43.94,18.91 -18.51,5.72 -39.32,10.65 -62.36,15.17 -23.15,4.93 -46.21,8.68 -69.27,12.13 -23.06,3.73 -44.24,6.8 -62.86,9.45 -40.49,6.01 -75.66,15.08 -105.9,28.38 -29.86,12.81 -53.32,29.84 -69.95,51.82 -16.65,21.58 -25.03,48.77 -25.03,80.98 0,46.89 17.03,82.48 51.13,106.71 34.37,24.52 77.53,36.65 130.15,36.65zm1180.67 213.79l0 -1651.13 343.65 0 0 620.88 10.54 0c14.78,-33.29 36.75,-67.39 65.42,-102.16 28.76,-34.48 66.6,-63.55 113.2,-87 46.1,-23.15 104.43,-34.88 173.59,-34.88 90.05,0 173.7,23.46 249.75,70.46 76.45,46.89 137.34,117.62 183.16,211.81 45.7,94.58 68.47,212.62 68.47,354.58 0,138.03 -22.37,254.59 -66.6,349.55 -44.24,94.58 -104.43,166.5 -180.5,214.88 -76.05,48.88 -161.18,73.11 -254.97,73.11 -66.6,0 -123.34,-11.04 -169.95,-33 -46.5,-21.87 -84.33,-49.85 -113.89,-83.56 -29.46,-33.29 -52.22,-67.39 -67.7,-101.76l-15.46 0 0 198.22 -338.72 0zm336.47 -619.01c0,73.4 10.14,137.72 30.64,192.61 20.39,54.87 49.94,97.23 88.47,127.87 38.63,30.26 85.92,45.41 141.19,45.41 55.95,0 103.24,-15.55 141.87,-46.59 38.61,-30.64 68.08,-73.71 88.18,-128.58 20.39,-55.27 30.24,-118.81 30.24,-190.73 0,-71.52 -9.85,-134.3 -29.95,-188.77 -19.61,-54.09 -49.17,-96.86 -87.78,-127.49 -38.52,-30.64 -86.21,-45.81 -142.56,-45.81 -56.06,0 -102.95,14.78 -141.58,44.24 -38.52,29.55 -67.68,71.52 -88.07,126 -20.5,54.09 -30.64,118.04 -30.64,191.84zm1751.22 -1032.12l0 1651.13 -343.54 0 0 -1651.13 343.54 0zm1146.7 1675.36c-127.49,0 -236.85,-26.11 -328.76,-77.93 -91.62,-51.82 -161.97,-125.22 -211.54,-220.97 -49.55,-95.38 -74.18,-208.09 -74.18,-338.63 0,-127.48 24.63,-239.51 74.18,-335.66 49.56,-96.06 119.21,-170.94 209.26,-224.73 90.05,-53.7 195.57,-80.6 317.05,-80.6 81.66,0 158.11,12.92 228.86,39.03 70.44,26.11 132.42,65.03 185.41,117.24 52.61,52.22 93.81,117.73 123.74,196.35 29.46,78.72 44.24,170.63 44.24,276.26l0 94.19 -1045.8 0 0 -213 722.36 0c0,-49.17 -10.65,-93.1 -32.23,-131.34 -21.56,-38.13 -51.03,-68.08 -88.86,-89.66 -37.84,-21.87 -82.17,-32.91 -132.11,-32.91 -51.82,0 -97.94,12.13 -138.03,35.96 -40.09,23.85 -71.52,55.97 -93.9,96.06 -22.66,39.8 -33.99,84.44 -34.77,133.21l0 202.46c0,61.27 11.33,114.29 34.48,158.91 22.66,44.64 55.18,79.01 96.84,102.86 41.97,24.23 91.93,36.36 149.47,36.36 37.82,0 73,-5.32 104.72,-15.88 31.43,-11.02 58.71,-26.88 81.37,-48.46 22.37,-21.58 39.71,-48.09 51.44,-79.01l317.83 20.79c-16.26,76.45 -49.17,142.96 -98.73,199.7 -49.94,56.85 -113.89,100.68 -191.82,132.11 -78.33,31.34 -168.38,47.29 -270.54,47.29zm1633.2 -24.23l0 -1651.13 1112.81 0 0 287.88 -763.55 0 0 393.5 706.01 0 0 287.59 -706.01 0 0 394.28 766.6 0 0 287.88 -1115.86 0zm2035.85 -715.86l0 715.86 -343.54 0 0 -1238.32 327.29 0 0 218.63 14.8 0c27.19,-72.23 73.38,-129.37 137.72,-171.34 64.34,-42.37 142.67,-63.26 234.58,-63.26 85.92,0 160.78,18.53 224.73,56.46 63.95,37.44 113.89,91.14 149.47,160.8 35.17,69.56 52.9,152.41 52.9,248.56l0 788.47 -343.16 0 0 -727.19c0.4,-75.66 -18.91,-135.07 -58.23,-177.83 -39.41,-42.74 -93.1,-63.93 -161.97,-63.93 -46.1,0 -86.99,9.85 -122.15,29.84 -35.18,19.7 -62.47,48.86 -82.17,86.7 -19.61,37.84 -29.86,83.25 -30.26,136.55zm1940.89 740.1c-127.49,0 -236.85,-26.11 -328.76,-77.93 -91.62,-51.82 -161.97,-125.22 -211.52,-220.97 -49.56,-95.38 -74.19,-208.09 -74.19,-338.63 0,-127.48 24.63,-239.51 74.19,-335.66 49.55,-96.06 119.21,-170.94 209.25,-224.73 90.05,-53.7 195.57,-80.6 317.05,-80.6 81.66,0 158.13,12.92 228.86,39.03 70.44,26.11 132.42,65.03 185.41,117.24 52.61,52.22 93.81,117.73 123.76,196.35 29.45,78.72 44.22,170.63 44.22,276.26l0 94.19 -1045.8 0 0 -213 722.36 0c0,-49.17 -10.65,-93.1 -32.21,-131.34 -21.58,-38.13 -51.04,-68.08 -88.88,-89.66 -37.82,-21.87 -82.17,-32.91 -132.11,-32.91 -51.82,0 -97.94,12.13 -138.03,35.96 -40.09,23.85 -71.52,55.97 -93.9,96.06 -22.66,39.8 -33.98,84.44 -34.77,133.21l0 202.46c0,61.27 11.33,114.29 34.48,158.91 22.66,44.64 55.18,79.01 96.84,102.86 41.99,24.23 91.93,36.36 149.47,36.36 37.84,0 73,-5.32 104.72,-15.88 31.43,-11.02 58.73,-26.88 81.37,-48.46 22.37,-21.58 39.71,-48.09 51.44,-79.01l317.83 20.79c-16.26,76.45 -49.17,142.96 -98.73,199.7 -49.94,56.85 -113.89,100.68 -191.82,132.11 -78.33,31.34 -168.38,47.29 -270.54,47.29zm1100.49 -24.23l0 -1238.32 333.01 0 0 215.96 12.81 0c22.75,-76.76 60.59,-135.07 113.89,-174.39 53.01,-39.3 114.29,-59.4 183.93,-59.4 16.96,0 35.58,1.17 55.57,3.45 19.7,2.26 37.04,4.93 52.22,8.66l0 304.93c-16.26,-4.93 -38.61,-9.06 -66.99,-12.81 -28.38,-3.84 -54.49,-5.7 -77.93,-5.7 -50.65,0 -95.66,10.93 -135.07,32.5 -39.71,21.98 -70.75,51.93 -93.79,90.85 -22.77,38.61 -34.1,83.25 -34.1,133.59l0 700.69 -343.54 0zm1736.26 482.06c-111.24,0 -206.61,-15.16 -286.11,-45.02 -79.01,-30.35 -142.27,-70.84 -188.77,-121.86 -46.89,-51.04 -77.15,-107.79 -91.14,-169.86l317.43 -42.76c9.76,22.27 24.94,43.84 46.12,63.95 20.79,19.99 48.86,36.65 83.25,49.56 34.77,12.79 77.13,19.31 127.08,19.31 74.59,0 136.26,-17.84 185.03,-53.41 48.86,-35.17 73,-93.39 73,-174.77l0 -226.6 -14.69 0c-14.78,34.39 -37.53,66.89 -67.77,97.54 -29.86,30.64 -68.47,55.66 -115.77,74.97 -47.29,19.61 -104.04,29.16 -169.46,29.16 -93.1,0 -177.44,-21.58 -253.49,-64.72 -76.07,-43.56 -136.66,-109.76 -181.28,-199.41 -45.04,-89.26 -67.3,-202.75 -67.3,-339.81 0,-140.29 22.66,-257.24 68.47,-351.43 45.72,-93.88 106.71,-164.23 182.76,-211.12 75.96,-46.89 159.21,-70.06 250.04,-70.06 69.27,0 127.49,11.73 174.1,34.88 46.89,23.46 84.73,52.52 113.49,87 28.67,34.77 50.65,68.87 66.2,102.16l12.81 0 0 -208.07 341.29 0 0 1250.45c0,103.24 -25.71,189.54 -77.53,259.21 -51.44,69.56 -122.96,122.17 -213.79,157.73 -91.14,35.17 -195.97,52.99 -313.99,52.99zm7.18 -757.92c55.18,0 102.18,-13.59 140.7,-41.17 38.22,-27.98 67.77,-67.79 88.56,-119.61 20.8,-51.82 31.03,-113.89 31.03,-186.51 0,-72.61 -10.23,-135.47 -30.64,-189.15 -20.48,-53.41 -49.94,-94.98 -88.57,-124.53 -38.9,-29.46 -85.9,-44.24 -141.08,-44.24 -56.46,0 -104.04,15.17 -142.65,45.41 -39.03,30.64 -68.08,72.61 -88.18,126.41 -19.7,53.7 -29.46,115.77 -29.46,186.1 0,71.54 9.76,133.21 30.24,185.03 20.01,51.82 49.17,91.91 87.8,119.9 38.22,28.38 85.8,42.37 142.25,42.37zm1392.61 737.84c-43.54,0 -84.42,-3.46 -122.26,-10.25 -37.84,-6.41 -69.27,-14.69 -93.79,-24.54l77.13 -256.95c60.99,18.53 112.01,23.46 153.6,14.8 41.66,-8.68 74.57,-41.28 98.8,-97.25l20.01 -52.22 -444.13 -1273.89 361.28 0 256.16 909.56 13.3 0 258.32 -909.56 363.64 1.48 -481.28 1370.74c-23.06,65.91 -54.09,123.74 -93.79,173 -39.41,49.17 -89.37,87.38 -149.45,114.2 -60.21,27.28 -132.82,40.89 -217.55,40.89z"/>
 </g>
</svg>
